<svg width="30" height="30" viewBox="0 0 30 30" fill="none" xmlns="http://www.w3.org/2000/svg">
<path fill-rule="evenodd" clip-rule="evenodd" d="M18.6034 3.75C18.6034 4.74456 18.2031 5.69839 17.4907 6.40165C16.7783 7.10491 15.812 7.5 14.8045 7.5C13.797 7.5 12.8307 7.10491 12.1183 6.40165C11.4058 5.69839 11.0056 4.74456 11.0056 3.75C11.0056 2.75544 11.4058 1.80161 12.1183 1.09835C12.8307 0.395088 13.797 0 14.8045 0C15.812 0 16.7783 0.395088 17.4907 1.09835C18.2031 1.80161 18.6034 2.75544 18.6034 3.75ZM1.26782 10.625C1.07299 10.6248 0.88074 10.6689 0.706022 10.754C0.531303 10.8391 0.378832 10.9628 0.260471 11.1156C0.142111 11.2684 0.0610539 11.446 0.0236087 11.6348C-0.0138365 11.8235 -0.0066602 12.0182 0.0445791 12.2037L1.50841 17.5C1.50841 17.8315 1.64183 18.1495 1.8793 18.3839C2.11678 18.6183 2.43886 18.75 2.77471 18.75H12.905C13.2409 18.75 13.563 18.6183 13.8005 18.3839C14.0379 18.1495 14.1713 17.8315 14.1713 17.5C14.1713 17.1685 14.0379 16.8505 13.8005 16.6161C13.563 16.3817 13.2409 16.25 12.905 16.25H10.0268L8.72755 11.5463C8.65447 11.2816 8.49525 11.0481 8.27443 10.8816C8.0536 10.7151 7.78344 10.6249 7.50558 10.625H1.26782ZM4.55258 20.625H12.905C13.7447 20.625 14.5499 20.2958 15.1436 19.7097C15.7372 19.1237 16.0708 18.3288 16.0708 17.5C16.0708 16.6712 15.7372 15.8763 15.1436 15.2903C14.5499 14.7042 13.7447 14.375 12.905 14.375H11.4779L10.5599 11.0525L10.5535 11.03C11.0835 10.2239 11.8374 9.58554 12.7252 9.19124C13.613 8.79695 14.597 8.66341 15.5596 8.8066C16.5223 8.94979 17.4227 9.36364 18.1534 9.99867C18.884 10.6337 19.4139 11.463 19.6797 12.3875C19.1797 12.5552 18.7456 12.8737 18.4388 13.298C18.1321 13.7224 17.9682 14.2312 17.9702 14.7525V18.1425C17.9702 19.3587 18.3856 20.5425 19.0947 21.5112C18.7687 21.7476 18.3747 21.875 17.9702 21.875H12.6809L8.80859 27.8813C8.67831 28.0964 8.50566 28.2835 8.30084 28.4316C8.09603 28.5798 7.86321 28.6858 7.61616 28.7436C7.3691 28.8014 7.11281 28.8097 6.86245 28.768C6.61209 28.7263 6.37273 28.6355 6.15853 28.501C5.94433 28.3664 5.75963 28.1908 5.61535 27.9846C5.47107 27.7784 5.37013 27.5457 5.31852 27.3003C5.2669 27.0549 5.26565 26.8018 5.31483 26.5559C5.36402 26.31 5.46264 26.0764 5.60487 25.8687L7.39794 23.185C7.51347 23.0123 7.55476 22.8013 7.51273 22.5986C7.47069 22.3958 7.34878 22.2178 7.17381 22.1038C6.99883 21.9897 6.78513 21.9489 6.57972 21.9904C6.3743 22.0319 6.19399 22.1523 6.07846 22.325L4.26893 25.03C3.95937 25.5102 3.77545 26.0588 3.73368 26.6265C3.69191 27.1941 3.79359 27.7632 4.0296 28.2825C3.68628 28.5811 3.24529 28.7474 2.78771 28.7507C2.33013 28.754 1.88673 28.5941 1.53903 28.3004C1.19133 28.0068 0.962709 27.5991 0.895199 27.1523C0.827689 26.7056 0.925831 26.2498 1.17158 25.8687L4.55258 20.625ZM27.4294 18.1425C27.4294 19.1675 27.1268 20.045 26.5228 20.63L29.244 24.4362C29.6974 25.1687 30 26.0475 30 26.9263V27.0725C30 28.6825 28.6387 30 26.9761 30H18.6034C18.2675 30 17.9454 29.8683 17.708 29.6339C17.4705 29.3995 17.3371 29.0815 17.3371 28.75C17.3371 28.4185 17.4705 28.1005 17.708 27.8661C17.9454 27.6317 18.2675 27.5 18.6034 27.5H21.079V20.9238C20.323 20.1913 19.8697 19.1662 19.8697 18.1412V14.7538C19.8694 14.6475 19.8967 14.543 19.9487 14.4501C20.0008 14.3571 20.076 14.2788 20.1672 14.2225C20.2585 14.1662 20.3628 14.1338 20.4702 14.1283C20.5777 14.1229 20.6848 14.1445 20.7814 14.1912L22.8936 15.2137H24.4055L26.5177 14.1912C26.6143 14.1445 26.7214 14.1229 26.8289 14.1283C26.9363 14.1338 27.0406 14.1662 27.1318 14.2225C27.2231 14.2788 27.2983 14.3571 27.3504 14.4501C27.4024 14.543 27.4296 14.6475 27.4294 14.7538V18.1425Z" fill="#D9D9D9"/>
</svg>
