<svg width="24" height="25" viewBox="0 0 24 25" fill="none" xmlns="http://www.w3.org/2000/svg">
<path d="M23.25 22.906C23.25 23.2486 23.1139 23.5771 22.8717 23.8194C22.6294 24.0616 22.3009 24.1977 21.9583 24.1977H1.29167C0.949096 24.1977 0.620555 24.0616 0.378321 23.8194C0.136086 23.5771 3.10918e-07 23.2486 3.10918e-07 22.906V9.33061C-0.00013625 9.13377 0.0447138 8.93951 0.131125 8.76266C0.217536 8.58581 0.343222 8.43104 0.498584 8.31019L10.8319 0.272147C11.0587 0.0957635 11.3377 0 11.625 0C11.9123 0 12.1913 0.0957635 12.4181 0.272147L22.7514 8.31019C22.9068 8.43104 23.0325 8.58581 23.1189 8.76266C23.2053 8.93951 23.2501 9.13377 23.25 9.33061V22.906Z" fill="#D9D9D9"/>
</svg>
