<svg width="34" height="30" viewBox="0 0 34 30" fill="none" xmlns="http://www.w3.org/2000/svg">
<path fill-rule="evenodd" clip-rule="evenodd" d="M19.8441 2.98158C20.2836 2.08612 20.9592 1.33291 21.7953 0.806316C22.6315 0.279718 23.595 0.000523048 24.5782 0H26.3669C26.5287 0 26.6839 0.0654439 26.7983 0.181934C26.9127 0.298425 26.977 0.45642 26.977 0.621163V6.13709L33.5852 8.37824C33.7061 8.41985 33.8112 8.49905 33.8857 8.60469C33.9601 8.71034 34.0001 8.8371 34 8.96711V11.3524C33.9987 12.7806 33.4409 14.15 32.449 15.1599C31.4572 16.1698 30.1123 16.7378 28.7095 16.7391H24.6343V16.7441C22.1355 16.2049 20.2809 14.7713 18.9388 13.0817C18.0247 11.9182 17.2967 10.6151 16.7816 9.22054L19.8441 2.98158ZM13.6605 9.53858H9.75124C7.76276 9.53601 5.83397 8.84663 4.2802 7.58316L0.993182 4.9047C0.903316 4.83163 0.794996 4.78592 0.680714 4.77282C0.566432 4.75973 0.450843 4.7798 0.347277 4.8307C0.24371 4.88161 0.156386 4.96129 0.0953727 5.06054C0.0343597 5.1598 0.00214388 5.2746 0.00244039 5.39169V25.654C-0.0165983 26.2173 0.0759175 26.7787 0.274475 27.3047C0.473032 27.8308 0.773567 28.3108 1.15817 28.7161C1.54277 29.1214 2.00358 29.4438 2.51312 29.6639C3.02266 29.8841 3.57051 29.9975 4.12402 29.9975C4.67754 29.9975 5.22539 29.8841 5.73493 29.6639C6.24447 29.4438 6.70527 29.1214 7.08987 28.7161C7.47448 28.3108 7.77501 27.8308 7.97357 27.3047C8.17213 26.7787 8.26464 26.2173 8.2456 25.654V24.4614C8.24625 23.994 8.42907 23.5459 8.75393 23.2156C9.07878 22.8853 9.51909 22.6998 9.97818 22.6998H14.661C14.8885 22.6998 15.1138 22.7454 15.324 22.8341C15.5343 22.9227 15.7253 23.0527 15.8861 23.2165C16.047 23.3803 16.1746 23.5748 16.2617 23.7888C16.3488 24.0028 16.3936 24.2322 16.3936 24.4639V25.6565C16.3746 26.2198 16.4671 26.7812 16.6656 27.3072C16.8642 27.8333 17.1647 28.3133 17.5493 28.7186C17.9339 29.1239 18.3947 29.4463 18.9043 29.6664C19.4138 29.8865 19.9617 30 20.5152 30C21.0687 30 21.6165 29.8865 22.1261 29.6664C22.6356 29.4463 23.0964 29.1239 23.481 28.7186C23.8656 28.3133 24.1662 27.8333 24.3647 27.3072C24.5633 26.7812 24.6558 26.2198 24.6368 25.6565V19.8996C21.0008 19.3057 18.3653 17.2907 16.5669 15.0346C15.2765 13.3982 14.2922 11.5345 13.663 9.53609" fill="#D9D9D9"/>
</svg>
