<svg width="16" height="30" viewBox="0 0 16 30" fill="none" xmlns="http://www.w3.org/2000/svg">
<path d="M8.48 13.1667C4.848 12.1833 3.68 11.1667 3.68 9.58333C3.68 7.76667 5.296 6.5 8 6.5C10.272 6.5 11.408 7.4 11.824 8.83333C12.016 9.5 12.544 10 13.216 10H13.696C14.752 10 15.504 8.91667 15.136 7.88333C14.464 5.91667 12.896 4.28333 10.4 3.65V2.5C10.4 1.11667 9.328 0 8 0C6.672 0 5.6 1.11667 5.6 2.5V3.6C2.496 4.3 0 6.4 0 9.61667C0 13.4667 3.056 15.3833 7.52 16.5C11.52 17.5 12.32 18.9667 12.32 20.5167C12.32 21.6667 11.536 23.5 8 23.5C5.36 23.5 4 22.5167 3.472 21.1167C3.232 20.4667 2.688 20 2.032 20H1.584C0.512 20 -0.24 21.1333 0.16 22.1667C1.072 24.4833 3.2 25.85 5.6 26.3833V27.5C5.6 28.8833 6.672 30 8 30C9.328 30 10.4 28.8833 10.4 27.5V26.4167C13.52 25.8 16 23.9167 16 20.5C16 15.7667 12.112 14.15 8.48 13.1667Z" fill="#D9D9D9"/>
</svg>
